<svg xmlns="http://www.w3.org/2000/svg" version="1.1" xmlns:xlink="http://www.w3.org/1999/xlink" xmlns:svgjs="http://svgjs.dev/svgjs" width="1500" height="371" viewBox="0 0 1500 371"><g transform="matrix(1,0,0,1,5.469127339869715,4.464907685264336)"><svg viewBox="0 0 396 98" data-background-color="#ffffff" preserveAspectRatio="xMidYMid meet" height="371" width="1500" xmlns="http://www.w3.org/2000/svg" xmlns:xlink="http://www.w3.org/1999/xlink"><g id="tight-bounds" transform="matrix(1,0,0,1,0.2400000000000091,0.17030159641615228)"><svg viewBox="0 0 395.52 97.65939680716768" height="97.65939680716768" width="395.52"><g><svg viewBox="0 0 606.0519795161251 149.6426748415623" height="97.65939680716768" width="395.52"><g><rect width="9.76478353723048" height="108.82119263080322" x="175.20493541022847" y="20.410741105379536" fill="#8dbdff" opacity="1" stroke-width="0" stroke="transparent" fill-opacity="1" class="rect-qz-0" data-fill-palette-color="primary" rx="1%" id="qz-0" data-palette-color="#8dbdff"></rect></g><g transform="matrix(1,0,0,1,210.53197951612512,20.681440589535754)"><svg viewBox="0 0 395.52 108.27979366249079" height="108.27979366249079" width="395.52"><g id="textblocktransform"><svg viewBox="0 0 395.52 108.27979366249079" height="108.27979366249079" width="395.52" id="textblock"><g><svg viewBox="0 0 395.52 108.27979366249079" height="108.27979366249079" width="395.52"><g transform="matrix(1,0,0,1,0,0)"><svg width="395.52" viewBox="2.5 -35.9 139.94 37.15" height="108.27979366249079" data-palette-color="#8dbdff"><g class="wordmark-text-0" data-fill-palette-color="primary" id="text-0"><path d="M15.7-18.6Q15.7-18.4 15.75-18.18 15.8-17.95 15.85-17.75L15.85-17.75Q16.25-17.7 17.05-17.7L17.05-17.7Q20.55-17.7 24.25-19.2L24.25-19.2Q25.3-19.6 26-19.6L26-19.6Q27.4-19.6 28.3-18.3L28.3-18.3Q28.75-17.6 28.75-17.1L28.75-17.1Q28.75-16.5 28.1-15.85L28.1-15.85Q26.1-14 23.85-13.75L23.85-13.75Q21.85-13.5 17.85-12.9L17.85-12.9 14.35-12.4Q13.55-10.65 13.55-9L13.55-9Q13.55-6.6 15.23-5.03 16.9-3.45 19.8-3.35L19.8-3.35Q22.75-3.3 27.35-3.75L27.35-3.75 28.1-3.8Q29.35-3.8 30.18-3.23 31-2.65 31.75-1.2L31.75-1.2Q31.2 0 30.2 0.43 29.2 0.85 27.6 1.05L27.6 1.05Q25.95 1.25 23.85 1.25L23.85 1.25Q19.3 1.25 15.65-0.2L15.65-0.2Q9.2-2.7 7.4-8.85L7.4-8.85Q7.15-9.7 7.15-10.68 7.15-11.65 7.15-11.85L7.15-11.85Q7.15-13.55 5.5-14.35L5.5-14.35Q4.15-15.1 3.43-15.8 2.7-16.5 2.5-17.9L2.5-17.9 8.15-18.25 10.7-25.6Q10.8-25.95 10.93-26.48 11.05-27 11.2-27.3L11.2-27.3Q11.65-28.3 11.65-28.95L11.65-28.95Q11.65-29.95 10.7-30.7L10.7-30.7Q10.35-30.95 10.13-31.63 9.9-32.3 9.7-32.7L9.7-32.7 10.8-33.05Q11.6-33.25 11.95-33.4L11.95-33.4Q12.15-33.5 12.8-33.77 13.45-34.05 13.55-34.4L13.55-34.4Q13.9-35.25 14.43-35.55 14.95-35.85 15.7-35.85L15.7-35.85Q16.2-35.85 17.2-35.75L17.2-35.75Q17.5-35.75 17.82-35.63 18.15-35.5 18.35-35.3L18.35-35.3Q19.5-34.1 20.9-33.7 22.3-33.3 24.2-33.3L24.2-33.3 26.35-33.3 30.55-33.3Q34.8-33.3 36.9-33.2L36.9-33.2Q38-33.15 39.7-32.25L39.7-32.25Q40-32.1 40.18-31.68 40.35-31.25 40.35-30.85L40.35-30.85Q40.35-30.65 40-30.38 39.65-30.1 39.35-30L39.35-30Q35.95-29.1 34.2-28.95L34.2-28.95Q31.5-28.7 26.1-28.3L26.1-28.3Q24.85-28.25 22.1-28.05L22.1-28.05Q21.9-28.05 21.4-28.18 20.9-28.3 20.65-28.3L20.65-28.3Q18.8-28.3 18.3-26.75L18.3-26.75Q16.95-22.75 15.75-18.8L15.75-18.8 15.7-18.6Z" fill="#8dbdff" data-fill-palette-color="primary"></path><path d="M63.35-18.85Q63.35-18.55 63.25-18.07 63.15-17.6 63.2-17.45L63.2-17.45Q66.65-18.2 69.05-18.2L69.05-18.2Q72.8-18.2 74.7-14.6L74.7-14.6Q76.25-11.55 76.25-7.85L76.25-7.85Q76.25-6.9 76.05-5.1L76.05-5.1Q75.9-3.9 75.1-3.18 74.3-2.45 73.2-2.45L73.2-2.45Q72.05-2.45 71.57-2.88 71.1-3.3 71.02-3.85 70.95-4.4 70.95-5.6L70.95-5.6 70.9-6.65Q70.8-9.65 70.5-11.85L70.5-11.85Q70.35-12.75 69.82-13.13 69.3-13.5 68.45-13.5L68.45-13.5Q67.65-13.5 66.55-13.25L66.55-13.25Q64.85-12.8 64.27-12.55 63.7-12.3 62.6-11.5L62.6-11.5Q62.25-11.25 62.1-10.5 61.95-9.75 61.95-9.65L61.95-9.65Q61.3-6.45 60.55-2L60.55-2Q60.5-1.8 60.35-1.05 60.2-0.3 59.77 0.03 59.35 0.35 58.55 0.25L58.55 0.25Q55.4-0.15 55.35-2.4L55.35-2.4Q55.3-5.3 55.8-9.25L55.8-9.25Q56.15-12.1 56.45-13.85L56.45-13.85Q56.55-14.65 56.72-15.8 56.9-16.95 57.05-18.45L57.05-18.45Q57.2-19.6 57.35-20.15 57.5-20.7 58.05-21.08 58.6-21.45 59.75-21.45L59.75-21.45Q61.2-21.45 62.15-20.8 63.1-20.15 63.35-18.95L63.35-18.95 63.35-18.85ZM92.15-3.35Q90.6-2.4 88.6-2.4L88.6-2.4Q86.4-2.4 84.37-3.53 82.35-4.65 81.15-6.75 79.95-8.85 80.15-11.55L80.15-11.55 80.4-12.75Q80.7-14.55 80.9-15.4L80.9-15.4Q81.35-17.25 82.7-18 84.05-18.75 86.3-19.2L86.3-19.2Q87.75-19.5 89.15-19.5L89.15-19.5Q93.55-19.5 96.55-16.55L96.55-16.55Q98.15-14.95 98.15-12.65L98.15-12.65Q98.15-10.4 96.5-7.8L96.5-7.8Q94.6-4.85 92.15-3.35L92.15-3.35ZM87.95-16.95Q87.15-15 86.25-12.1L86.25-12.1 85.75-10.6 86.1-10.45Q86.1-10.1 86.12-9.38 86.15-8.65 86.3-8.15L86.3-8.15Q86.85-6.6 87.55-6.25L87.55-6.25Q87.85-6.1 88.42-6.4 89-6.7 89.45-7.1L89.45-7.1Q90.15-7.7 91.7-9.6L91.7-9.6Q92.85-10.9 92.85-12.7L92.85-12.7Q92.85-14.25 91.97-15.5 91.1-16.75 89.55-17.2L89.55-17.2Q89.4-17.25 89-17.25L89-17.25Q88.05-17.25 87.95-16.95L87.95-16.95ZM101.24-18.65Q100.89-19.05 100.77-19.5 100.64-19.95 100.54-20.75L100.54-20.75Q100.99-21.8 102.19-21.8L102.19-21.8Q102.79-21.7 103.04-21.7L103.04-21.7Q104.04-21.7 104.29-22.3 104.54-22.9 104.54-23.7 104.54-24.5 104.54-24.95L104.54-24.95 104.69-27.95Q104.74-28.95 104.82-30.43 104.89-31.9 104.99-33.85L104.99-33.85Q105.04-34.9 105.52-35.4 105.99-35.9 106.84-35.9L106.84-35.9Q107.44-35.9 107.79-35.8L107.79-35.8Q109.84-35.35 110.54-34.5 111.24-33.65 111.49-31.95L111.49-31.95Q111.54-31.6 111.39-30.5L111.39-30.5 110.49-22.7Q110.44-22.4 110.34-21.98 110.24-21.55 110.24-21.35L110.24-21.35Q110.24-20.9 110.74-20.75 111.24-20.6 112.59-20.65L112.59-20.65Q114.89-21.15 116.09-21.3L116.09-21.3Q116.34-21.35 116.89-21.35L116.89-21.35Q117.49-21.35 117.69-21.2L117.69-21.2Q117.89-21.1 118.02-20.63 118.14-20.15 118.14-19.55L118.14-19.55Q118.14-19 118.02-18.55 117.89-18.1 117.69-18.05L117.69-18.05Q116.34-17.65 114.49-17.4L114.49-17.4Q112.29-17 111.24-16.7L111.24-16.7Q110.69-16.55 110.14-15.95 109.59-15.35 109.54-14.85L109.54-14.85Q109.44-12.4 109.39-9.85L109.39-9.85Q109.34-7.9 109.54-5.95L109.54-5.95Q109.69-4.3 110.19-3.58 110.69-2.85 111.69-2.85L111.69-2.85Q112.49-2.85 113.99-3.4L113.99-3.4Q114.79-3.75 115.39-3.75L115.39-3.75Q116.34-3.75 116.74-2.7L116.74-2.7Q116.89-2.35 116.89-2L116.89-2Q116.89-1.35 116.42-0.95 115.94-0.55 115.14-0.25L115.14-0.25Q113.64 0.3 112.09 0.35L112.09 0.35Q109.99 0.35 108.14-0.68 106.29-1.7 105.22-3.55 104.14-5.4 104.29-7.8L104.29-7.8Q104.34-8.75 104.34-10.8L104.34-10.8Q104.34-14.05 104.09-17.4L104.09-17.4Q104.04-17.7 103.74-17.82 103.44-17.95 102.74-18.1L102.74-18.1Q101.59-18.3 101.24-18.65L101.24-18.65ZM131.14-7.8Q130.64-7.5 129.69-7.5L129.69-7.5Q129.34-7.5 128.84-7.55 128.34-7.6 127.99-7.55L127.99-7.55Q128.39-5.9 129.89-4.88 131.39-3.85 133.24-3.85L133.24-3.85Q134.84-3.85 136.09-4.55L136.09-4.55Q137.94-5.5 139.29-6.8L139.29-6.8Q140.24-7.75 141.09-7.75L141.09-7.75Q141.64-7.75 142.04-7.2L142.04-7.2Q142.44-6.55 142.44-5.6L142.44-5.6Q142.44-4.6 142.04-4.05L142.04-4.05Q140.74-2.05 138.67-1.3 136.59-0.55 133.84-0.55L133.84-0.55Q130.99-0.55 128.34-1.8 125.69-3.05 123.82-5.23 121.94-7.4 121.34-10.05L121.34-10.05Q120.94-11.6 120.94-13.1L120.94-13.1Q120.94-15.45 122.27-16.9 123.59-18.35 126.54-19.65L126.54-19.65Q129.24-20.8 131.54-20.8L131.54-20.8Q133.19-20.8 134.74-20.3L134.74-20.3Q139.54-18.8 139.54-16.2L139.54-16.2Q139.54-14.55 137.59-12.2L137.59-12.2Q136.64-11.1 135.34-10.25 134.04-9.4 132.82-8.72 131.59-8.05 131.14-7.8L131.14-7.8ZM133.24-17.05Q133.19-17.3 132.87-17.48 132.54-17.65 132.49-17.7L132.49-17.7Q131.14-17.8 129.74-16.93 128.34-16.05 127.42-14.7 126.49-13.35 126.49-12.1L126.49-12.1 126.54-11.7Q126.59-11.5 127.07-11.2 127.54-10.9 127.64-11L127.64-11Q131.19-13.65 132.99-15.25L132.99-15.25Q133.29-15.55 133.29-16.35L133.29-16.35Q133.29-16.85 133.24-17.05L133.24-17.05Z" fill="#8dbdff" data-fill-palette-color="primary"></path></g></svg></g></svg></g></svg></g></svg></g><g><svg viewBox="0 0 149.6426748415623 149.6426748415623" height="149.6426748415623" width="149.6426748415623"><g><svg xmlns="http://www.w3.org/2000/svg" viewBox="2 2 60 60" x="0" y="0" height="149.6426748415623" width="149.6426748415623" class="icon-icon-0" data-fill-palette-color="accent" id="icon-0"><g fill="#8dbdff" data-fill-palette-color="accent"><path d="M57 20H56V11c0-0.022-0.011-0.04-0.012-0.062a0.992 0.992 0 0 0-0.054-0.264c-0.011-0.032-0.019-0.063-0.033-0.094a0.99 0.99 0 0 0-0.193-0.285v0l-8-8h0a0.993 0.993 0 0 0-0.287-0.193c-0.029-0.014-0.06-0.022-0.09-0.033a0.966 0.966 0 0 0-0.271-0.054C47.038 2.011 47.021 2 47 2H12A4 4 0 0 0 8 6V20H7a5.006 5.006 0 0 0-5 5V57a5.006 5.006 0 0 0 5 5H57a5.006 5.006 0 0 0 5-5V25A5.006 5.006 0 0 0 57 20ZM26.43 42H37.57l17.1 18H9.33ZM57 22a3 3 0 0 1 2.959 2.5L56 27.257V22ZM52.586 10H49a1 1 0 0 1-1-1V5.414ZM10 6a2 2 0 0 1 2-2H46V9a3 3 0 0 0 3 3h5V28.647L37.686 40H26.314L10 28.647ZM7 22H8v5.257L4.041 24.505A3 3 0 0 1 7 22ZM4 57V26.913L24.473 41.156 6.6 59.973A3 3 0 0 1 4 57Zm53.4 2.973L39.527 41.156 60 26.913V57A3 3 0 0 1 57.4 59.973Z" fill="#8dbdff" data-fill-palette-color="accent"></path><path d="M23 10H41a1 1 0 0 0 0-2H23a1 1 0 0 0 0 2Z" fill="#8dbdff" data-fill-palette-color="accent"></path><path d="M14 15a1 1 0 0 0 1 1H49a1 1 0 0 0 0-2H15A1 1 0 0 0 14 15Z" fill="#8dbdff" data-fill-palette-color="accent"></path><path d="M49 20H15a1 1 0 0 0 0 2H49a1 1 0 0 0 0-2Z" fill="#8dbdff" data-fill-palette-color="accent"></path><path d="M49 26H15a1 1 0 0 0 0 2H49a1 1 0 0 0 0-2Z" fill="#8dbdff" data-fill-palette-color="accent"></path><path d="M43 32H21a1 1 0 0 0 0 2H43a1 1 0 0 0 0-2Z" fill="#8dbdff" data-fill-palette-color="accent"></path><path d="M13 12a1 1 0 0 0 1-1V9a1 1 0 0 1 1-1h2a1 1 0 0 0 0-2H15a3 3 0 0 0-3 3v2A1 1 0 0 0 13 12Z" fill="#8dbdff" data-fill-palette-color="accent"></path></g></svg></g></svg></g></svg></g><defs></defs></svg><rect width="395.52" height="97.65939680716768" fill="none" stroke="none" visibility="hidden"></rect></g></svg></g></svg>